<?xml version="1.0" encoding="UTF-8" standalone="no"?><svg xmlns="http://www.w3.org/2000/svg" xmlns:xlink="http://www.w3.org/1999/xlink" contentScriptType="application/ecmascript" contentStyleType="text/css" height="342px" preserveAspectRatio="none" style="width:284px;height:342px;" version="1.1" viewBox="0 0 284 342" width="284px" zoomAndPan="magnify"><defs><filter height="300%" id="f1mayq3eo688on" width="300%" x="-1" y="-1"><feGaussianBlur result="blurOut" stdDeviation="2.0"/><feColorMatrix in="blurOut" result="blurOut2" type="matrix" values="0 0 0 0 0 0 0 0 0 0 0 0 0 0 0 0 0 0 .4 0"/><feOffset dx="4.0" dy="4.0" in="blurOut2" result="blurOut3"/><feBlend in="SourceGraphic" in2="blurOut3" mode="normal"/></filter></defs><g><rect fill="#FEFECE" filter="url(#f1mayq3eo688on)" height="30.2969" style="stroke: #A80036; stroke-width: 1.5;" width="55" x="204.5" y="48.2969"/><text fill="#000000" font-family="sans-serif" font-size="14" lengthAdjust="spacingAndGlyphs" textLength="41" x="211.5" y="68.292">Player</text><rect fill="#FFFFFF" filter="url(#f1mayq3eo688on)" height="46.2656" style="stroke: #000000; stroke-width: 2.0;" width="260.5" x="13" y="212.9922"/><line style="stroke: #A80036; stroke-width: 1.0; stroke-dasharray: 5.0,5.0;" x1="70" x2="70" y1="38.2969" y2="330.3906"/><line style="stroke: #A80036; stroke-width: 1.0; stroke-dasharray: 5.0,5.0;" x1="233.5" x2="233.5" y1="80.9453" y2="330.3906"/><rect fill="#FEFECE" filter="url(#f1mayq3eo688on)" height="30.2969" style="stroke: #A80036; stroke-width: 1.5;" width="90" x="23" y="3"/><text fill="#000000" font-family="sans-serif" font-size="14" lengthAdjust="spacingAndGlyphs" textLength="76" x="30" y="22.9951">Testcenter</text><polygon fill="#A80036" points="192.5,65.2969,202.5,69.2969,192.5,73.2969,196.5,69.2969" style="stroke: #A80036; stroke-width: 1.0;"/><line style="stroke: #A80036; stroke-width: 1.0;" x1="70" x2="198.5" y1="69.2969" y2="69.2969"/><text fill="#000000" font-family="sans-serif" font-size="13" lengthAdjust="spacingAndGlyphs" textLength="56" x="77" y="64.3638">(loading)</text><rect fill="#FEFECE" filter="url(#f1mayq3eo688on)" height="30.2969" style="stroke: #A80036; stroke-width: 1.5;" width="55" x="204.5" y="48.2969"/><text fill="#000000" font-family="sans-serif" font-size="14" lengthAdjust="spacingAndGlyphs" textLength="41" x="211.5" y="68.292">Player</text><polygon fill="#A80036" points="81,110.5938,71,114.5938,81,118.5938,77,114.5938" style="stroke: #A80036; stroke-width: 1.0;"/><line style="stroke: #A80036; stroke-width: 1.0;" x1="75" x2="233" y1="114.5938" y2="114.5938"/><text fill="#000000" font-family="sans-serif" font-size="13" lengthAdjust="spacingAndGlyphs" textLength="111" x="87" y="109.6606">ReadyNotification</text><polygon fill="#A80036" points="222,139.7266,232,143.7266,222,147.7266,226,143.7266" style="stroke: #A80036; stroke-width: 1.0;"/><line style="stroke: #A80036; stroke-width: 1.0;" x1="70" x2="228" y1="143.7266" y2="143.7266"/><text fill="#000000" font-family="sans-serif" font-size="13" lengthAdjust="spacingAndGlyphs" textLength="83" x="77" y="138.7935">DataTransfer</text><polygon fill="#A80036" points="81,168.8594,71,172.8594,81,176.8594,77,172.8594" style="stroke: #A80036; stroke-width: 1.0;"/><line style="stroke: #A80036; stroke-width: 1.0;" x1="75" x2="233" y1="172.8594" y2="172.8594"/><text fill="#000000" font-family="sans-serif" font-size="13" lengthAdjust="spacingAndGlyphs" textLength="120" x="87" y="167.9263">StartedNotification</text><rect fill="none" height="46.2656" style="stroke: #000000; stroke-width: 2.0;" width="260.5" x="13" y="212.9922"/><polygon fill="#EEEEEE" points="13,212.9922,90,212.9922,90,219.9922,80,229.9922,13,229.9922,13,212.9922" style="stroke: #000000; stroke-width: 2.0;"/><text fill="#000000" font-family="sans-serif" font-size="13" font-weight="bold" lengthAdjust="spacingAndGlyphs" textLength="32" x="28" y="226.0591">loop</text><polygon fill="#A80036" points="81,247.125,71,251.125,81,255.125,77,251.125" style="stroke: #A80036; stroke-width: 1.0;"/><line style="stroke: #A80036; stroke-width: 1.0;" x1="75" x2="233" y1="251.125" y2="251.125"/><text fill="#000000" font-family="sans-serif" font-size="13" lengthAdjust="spacingAndGlyphs" textLength="140" x="87" y="246.1919">ChangedDataTransfer</text><polygon fill="#A80036" points="222,308.2578,232,312.2578,222,316.2578,226,312.2578" style="stroke: #A80036; stroke-width: 1.0;"/><line style="stroke: #A80036; stroke-width: 1.0; stroke-dasharray: 2.0,2.0;" x1="70" x2="228" y1="312.2578" y2="312.2578"/><text fill="#000000" font-family="sans-serif" font-size="13" font-style="italic" lengthAdjust="spacingAndGlyphs" textLength="67" x="77" y="307.3247">navigation</text><!--
@startuml

hide footbox

participant Testcenter
create Player
Testcenter -> Player: (loading)
Testcenter <- Player: ReadyNotification
Testcenter -> Player: DataTransfer
Testcenter <- Player: StartedNotification

|||

loop
    Testcenter <- Player: ChangedDataTransfer
end

|||

Testcenter - -> Player: //navigation//

@enduml

PlantUML version 1.2017.15(Mon Jul 03 18:45:34 CEST 2017)
(GPL source distribution)
Java Runtime: OpenJDK Runtime Environment
JVM: OpenJDK 64-Bit Server VM
Java Version: 11.0.3+7-Ubuntu-1ubuntu218.04.1
Operating System: Linux
OS Version: 4.15.0-50-generic
Default Encoding: UTF-8
Language: de
Country: DE
--></g></svg>